<?xml version="1.0" encoding="utf-8"?>
<!-- Generator: Adobe Illustrator 16.0.0, SVG Export Plug-In . SVG Version: 6.00 Build 0)  -->
<!DOCTYPE svg PUBLIC "-//W3C//DTD SVG 1.1//EN" "http://www.w3.org/Graphics/SVG/1.1/DTD/svg11.dtd">
<svg version="1.1" id="Layer_1" xmlns="http://www.w3.org/2000/svg" xmlns:xlink="http://www.w3.org/1999/xlink" x="0px" y="0px"
	 width="3000px" height="3000px" viewBox="0 0 3000 3000" enable-background="new 0 0 3000 3000" xml:space="preserve">
<g>
	<path fill="#EF6923" d="M426.793,1437.897c-0.03-8.122-0.963-16.139-2.762-24.059c-0.77-4.051-1.877-8.006-3.339-11.855
		c-1.454-3.858-3.233-7.563-5.332-11.104c-2.107-3.552-4.494-6.881-7.178-10.019c-2.676-3.127-5.611-6.004-8.796-8.622
		c-3.186-2.617-6.572-4.946-10.162-6.977c-3.589-2.031-7.323-3.733-11.211-5.11c-3.878-1.386-7.852-2.405-11.923-3.099
		c-4.062-0.683-8.16-1.01-12.27-0.991c-47.336,0-84.616,43.392-84.616,119.327c0,62.521,30.766,111.243,84.616,111.243
		c3.897,0.038,7.775-0.26,11.634-0.866c3.839-0.606,7.622-1.529,11.336-2.762c3.704-1.231,7.274-2.742,10.719-4.562
		c3.455-1.819,6.737-3.907,9.845-6.265c3.108-2.348,6.005-4.955,8.681-7.785c2.685-2.829,5.119-5.86,7.303-9.094
		c2.194-3.232,4.1-6.62,5.716-10.161c1.636-3.552,2.963-7.208,3.984-10.971c2.627-11.096,3.878-22.325,3.753-33.729V1437.897z
		 M560.708,1267.097c-2.174,27.021-3.744,62.329-3.744,124.85v233.331c0,80.662-16.176,146.542-63.705,188.546
		c-47.528,42.015-108.279,51.09-169.415,51.09c-26.098,0.673-51.926-1.665-77.476-6.996c-25.549-5.332-50.155-13.512-73.799-24.568
		l25.838-98.608c18.649,10.144,38.251,17.842,58.807,23.115c20.564,5.273,41.457,7.958,62.685,8.046
		c61.54,0,108.866-32.95,108.866-110.455v-27.224h-1.972c-6.534,8.738-14.012,16.57-22.441,23.49
		c-8.431,6.919-17.572,12.731-27.417,17.447c-9.845,4.715-20.103,8.17-30.785,10.383c-10.672,2.213-21.469,3.117-32.372,2.724
		c-103.343,0-177.498-84.606-177.498-203.154c0-135.492,87.176-220.099,189.922-220.099c11.355-0.713,22.595,0.095,33.719,2.425
		c11.125,2.328,21.748,6.092,31.853,11.307c10.114,5.206,19.342,11.664,27.695,19.371c8.354,7.718,15.532,16.398,21.527,26.06h1.781
		l4.33-50.694L560.708,1267.097z"/>
	<path fill="#EF6923" d="M738.004,1477.342c0,71.395,30.187,125.842,85.799,125.842c50.694,0,82.826-50.887,82.826-126.631
		c0-61.732-23.855-125.438-82.633-125.438C761.878,1350.721,738.004,1414.629,738.004,1477.342L738.004,1477.342z
		 M1040.949,1472.415c0,152.459-108.27,223.266-220.1,223.266c-122.087,0-216.953-80.468-216.953-216.953
		c0-136.484,88.562-222.476,223.266-222.476C955.746,1257.242,1040.949,1345.996,1040.949,1472.415z"/>
	<path fill="#2767A7" d="M1087.9,1686.222v-419.125h130.557v419.114H1087.9V1686.222z M1222.21,1150.733
		c0.039,4.234-0.337,8.439-1.126,12.616c-0.779,4.167-1.972,8.219-3.551,12.144c-1.588,3.938-3.532,7.671-5.851,11.231
		c-2.319,3.551-4.965,6.832-7.93,9.863c-2.964,3.031-6.197,5.735-9.69,8.131c-3.502,2.396-7.198,4.418-11.095,6.092
		c-3.898,1.665-7.92,2.936-12.068,3.812c-4.147,0.875-8.343,1.337-12.587,1.395H1152c-4.157,0.27-8.304,0.135-12.433-0.414
		c-4.148-0.548-8.189-1.491-12.135-2.828c-3.946-1.339-7.737-3.052-11.346-5.129c-3.608-2.079-6.996-4.504-10.123-7.237
		c-3.137-2.753-5.986-5.774-8.527-9.074c-2.55-3.312-4.754-6.823-6.611-10.558c-1.848-3.733-3.329-7.62-4.417-11.644
		c-1.087-4.022-1.78-8.112-2.069-12.27v-5.129c0-4.532,0.443-9.017,1.329-13.462c0.885-4.446,2.193-8.768,3.925-12.943
		c1.732-4.195,3.859-8.171,6.38-11.933c2.512-3.772,5.379-7.256,8.584-10.461c3.204-3.204,6.697-6.063,10.46-8.583
		c3.772-2.521,7.755-4.64,11.932-6.38c4.196-1.742,8.507-3.042,12.954-3.927c4.446-0.886,8.939-1.328,13.462-1.328
		s9.027,0.442,13.463,1.328c4.455,0.885,8.766,2.193,12.952,3.927c4.196,1.731,8.17,3.858,11.933,6.38
		c3.772,2.521,7.256,5.379,10.46,8.583c3.205,3.205,6.073,6.688,8.594,10.461c2.521,3.762,4.638,7.746,6.37,11.933
		c1.742,4.186,3.042,8.497,3.926,12.943c0.895,4.445,1.338,8.93,1.338,13.462L1222.21,1150.733z"/>
	<path fill="#2767A7" d="M1419.627,1508.713c-0.202,7.785,0.597,15.475,2.368,23.067c0.962,4.34,2.271,8.583,3.936,12.692
		c1.674,4.129,3.676,8.074,6.023,11.847c2.339,3.792,4.985,7.352,7.92,10.682c2.944,3.329,6.149,6.399,9.613,9.189
		c3.455,2.791,7.122,5.283,11.019,7.448c3.878,2.175,7.911,4.004,12.105,5.485c4.196,1.492,8.479,2.618,12.857,3.388
		c4.378,0.77,8.795,1.154,13.241,1.184c55.024,0,89.735-43.198,89.735-118.345c0-65.284-29.188-115.969-89.735-115.969
		c-4.504,0.106-8.979,0.587-13.405,1.443c-4.427,0.866-8.747,2.088-12.973,3.676c-4.214,1.599-8.274,3.532-12.172,5.813
		c-3.898,2.281-7.564,4.869-11.02,7.766c-3.455,2.906-6.64,6.073-9.545,9.518c-2.927,3.445-5.534,7.102-7.824,10.99
		c-2.3,3.878-4.253,7.929-5.861,12.144c-1.605,4.216-2.857,8.536-3.733,12.953c-1.751,7.997-2.598,16.08-2.569,24.26v60.77H1419.627
		z M1285.712,1686.222c1.974-27.82,3.541-77.515,3.541-125.043v-483.022h130.374v238.836h1.579
		c7.265-9.758,15.599-18.477,25.02-26.175c9.421-7.689,19.641-14.117,30.659-19.274c11.009-5.158,22.489-8.902,34.421-11.23
		c11.943-2.319,23.98-3.146,36.125-2.483c101.582,0,173.957,83.028,172.967,211.622c0,150.899-95.645,226.422-191.703,226.422
		c-6.234,0.299-12.471,0.183-18.697-0.375c-6.217-0.549-12.375-1.511-18.476-2.906c-6.092-1.386-12.067-3.166-17.908-5.37
		c-5.852-2.193-11.52-4.772-17.033-7.746c-5.494-2.974-10.778-6.294-15.82-9.97c-5.053-3.686-9.835-7.688-14.339-12.019
		c-4.503-4.331-8.689-8.96-12.577-13.849c-3.869-4.898-7.4-10.047-10.585-15.426h-1.579l-5.726,59.172L1285.712,1686.222z"/>
	<path fill="#2767A7" d="M1767.533,1686.222v-419.125h130.574v419.114h-130.574V1686.222z M1901.842,1150.733
		c0,4.533-0.443,9.026-1.318,13.473c-0.885,4.436-2.205,8.757-3.926,12.943c-1.742,4.195-3.85,8.17-6.391,11.933
		c-2.512,3.772-5.369,7.256-8.574,10.461c-3.215,3.204-6.688,6.062-10.471,8.583c-3.781,2.512-7.746,4.638-11.922,6.38
		s-8.518,3.041-12.963,3.927c-4.445,0.885-8.93,1.328-13.463,1.328c-4.531,0-9.016-0.434-13.453-1.328
		c-4.445-0.886-8.775-2.194-12.961-3.927c-4.188-1.731-8.17-3.858-11.924-6.38c-3.781-2.521-7.256-5.39-10.471-8.583
		c-3.203-3.205-6.063-6.698-8.582-10.461c-2.521-3.763-4.639-7.746-6.381-11.933c-1.732-4.187-3.041-8.508-3.926-12.943
		c-0.887-4.446-1.318-8.939-1.318-13.473c0-4.532,0.441-9.017,1.338-13.443c0.895-4.446,2.203-8.757,3.945-12.943
		c1.721-4.176,3.857-8.15,6.369-11.912c2.531-3.764,5.398-7.247,8.594-10.441c3.195-3.205,6.688-6.054,10.451-8.574
		c3.781-2.521,7.746-4.639,11.922-6.371c4.197-1.731,8.518-3.041,12.953-3.916c4.438-0.886,8.922-1.328,13.445-1.328
		c4.541,0,9.025,0.442,13.451,1.328c4.447,0.875,8.758,2.185,12.943,3.916c4.195,1.732,8.16,3.85,11.934,6.371
		c3.764,2.511,7.256,5.369,10.449,8.574c3.205,3.194,6.064,6.678,8.594,10.441c2.514,3.762,4.648,7.736,6.371,11.912
		c1.742,4.187,3.051,8.497,3.945,12.943C1901.4,1141.727,1901.842,1146.201,1901.842,1150.733L1901.842,1150.733z"/>
	<path fill="#2767A7" d="M2099.27,1508.713c-0.193,7.785,0.605,15.475,2.357,23.067c0.971,4.34,2.281,8.583,3.955,12.692
		c1.664,4.129,3.676,8.074,6.014,11.847c2.35,3.792,4.994,7.352,7.92,10.682c2.945,3.329,6.15,6.399,9.613,9.189
		c3.445,2.791,7.121,5.283,11.02,7.448c3.867,2.175,7.91,4.004,12.115,5.485c4.186,1.492,8.469,2.618,12.855,3.388
		c4.381,0.77,8.797,1.154,13.242,1.184c55.217,0,89.736-43.198,89.736-118.345c0-65.284-29.006-116.758-89.736-116.758
		c-4.514,0.116-8.988,0.606-13.414,1.481c-4.436,0.867-8.758,2.107-12.992,3.706c-4.215,1.606-8.266,3.551-12.164,5.831
		c-3.896,2.28-7.572,4.889-11.027,7.795c-3.445,2.916-6.621,6.091-9.535,9.536c-2.916,3.445-5.516,7.112-7.814,11.009
		c-2.291,3.889-4.244,7.948-5.861,12.163c-1.607,4.216-2.838,8.536-3.715,12.973c-1.664,7.939-2.502,15.955-2.578,24.058v61.568
		H2099.27z M1965.344,1686.222c1.973-27.82,3.561-77.515,3.561-125.043v-483.022h130.365v238.836h1.789
		c7.256-9.768,15.609-18.505,25.049-26.204c9.441-7.698,19.68-14.136,30.707-19.294c11.029-5.168,22.527-8.901,34.48-11.211
		c11.951-2.319,24.018-3.128,36.174-2.454c101.58,0,173.957,83.23,172.975,211.622c0,150.899-95.643,226.422-191.701,226.422
		c-6.227,0.289-12.453,0.154-18.68-0.395c-6.217-0.568-12.365-1.529-18.447-2.925c-6.082-1.386-12.037-3.186-17.879-5.38
		c-5.842-2.203-11.51-4.782-17.004-7.746c-5.486-2.974-10.75-6.284-15.793-9.971c-5.051-3.676-9.824-7.688-14.309-12.009
		c-4.504-4.33-8.68-8.94-12.559-13.838c-3.879-4.898-7.4-10.027-10.576-15.406h-1.973l-5.33,59.172L1965.344,1686.222z"/>
	<path fill="#2767A7" d="M2560.389,1477.342c0,71.395,30.178,125.842,85.598,125.842c50.887,0,83.037-50.887,83.037-126.631
		c0-61.732-23.855-125.438-82.836-125.438C2584.063,1350.721,2560.389,1414.629,2560.389,1477.342z M2863.324,1472.415
		c0,152.459-108.461,223.266-220.09,223.266c-122.088,0-216.953-80.468-216.953-216.953c0-136.484,88.938-221.485,223.854-221.485
		C2778.131,1257.242,2863.324,1345.996,2863.324,1472.415z"/>
	<path fill="#040404" d="M2192.557,1891.328c0.027-1.963,0.248-3.906,0.654-5.822c0.402-1.914,1-3.781,1.77-5.581
		s1.723-3.513,2.82-5.139c1.105-1.616,2.375-3.108,3.781-4.485c1.404-1.375,2.926-2.597,4.58-3.676
		c1.637-1.068,3.379-1.972,5.188-2.703c1.818-0.732,3.705-1.29,5.619-1.646c1.936-0.365,3.869-0.548,5.842-0.528
		c1.953,0.02,3.906,0.222,5.822,0.616c1.914,0.403,3.791,0.991,5.59,1.751c1.811,0.771,3.523,1.703,5.148,2.8
		c1.627,1.098,3.119,2.358,4.494,3.763c1.396,1.396,2.609,2.916,3.705,4.553c1.078,1.635,1.982,3.367,2.723,5.187
		c0.752,1.809,1.309,3.685,1.686,5.609c0.365,1.925,0.549,3.869,0.539,5.832c0,1.963-0.203,3.907-0.598,5.832
		c-0.385,1.914-0.971,3.791-1.723,5.601c-0.76,1.809-1.684,3.531-2.771,5.158c-1.096,1.626-2.348,3.127-3.742,4.522
		c-1.396,1.386-2.896,2.617-4.533,3.715c-1.635,1.077-3.367,2.001-5.178,2.742c-1.809,0.76-3.686,1.318-5.6,1.704
		c-1.924,0.374-3.869,0.577-5.842,0.577c-1.895,0.066-3.791-0.058-5.668-0.366c-1.877-0.299-3.705-0.789-5.494-1.453
		c-1.781-0.663-3.484-1.501-5.102-2.512c-1.615-1.01-3.127-2.155-4.521-3.455c-1.396-1.299-2.646-2.724-3.754-4.263
		c-1.125-1.549-2.059-3.194-2.848-4.927c-0.799-1.742-1.406-3.531-1.838-5.39c-0.424-1.856-0.674-3.742-0.75-5.629V1891.328z"/>
	<path fill="#040404" d="M2404.379,1914.212c-14.637,5.418-29.764,7.853-45.354,7.294c-2.82,0.251-5.639,0.356-8.439,0.309
		c-2.828-0.058-5.639-0.26-8.439-0.606c-2.791-0.347-5.572-0.856-8.314-1.501c-2.732-0.646-5.438-1.435-8.102-2.387
		c-2.646-0.934-5.264-2.012-7.795-3.233c-2.561-1.212-5.023-2.569-7.42-4.051c-2.396-1.474-4.695-3.07-6.93-4.813
		c-2.232-1.741-4.357-3.579-6.389-5.532c-2.031-1.954-3.945-4.013-5.754-6.188c-1.801-2.165-3.494-4.427-5.063-6.766
		c-1.549-2.337-3.002-4.763-4.291-7.265c-1.318-2.502-2.484-5.063-3.504-7.689c-1.039-2.617-1.914-5.292-2.666-8.016
		c-0.75-2.714-1.336-5.456-1.789-8.247c-0.463-2.781-0.77-5.581-0.904-8.401c-0.164-2.81-0.164-5.63,0-8.439
		c0-47.537,32.535-86.193,92.883-86.193c13.125-0.183,25.875,1.914,38.27,6.313l-7.688,37.473
		c-9.027-3.812-18.428-5.515-28.207-5.129c-3.117-0.202-6.215-0.088-9.305,0.336c-3.088,0.443-6.102,1.184-9.025,2.224
		c-2.936,1.049-5.736,2.386-8.393,4.013c-2.666,1.626-5.129,3.502-7.418,5.629c-2.281,2.137-4.313,4.476-6.104,7.016
		c-1.799,2.55-3.318,5.254-4.551,8.122c-1.26,2.849-2.184,5.812-2.828,8.862c-0.627,3.051-0.943,6.14-0.943,9.258
		c0,3.117,0.307,6.207,0.943,9.257c0.645,3.051,1.568,6.015,2.828,8.863c1.232,2.868,2.752,5.571,4.551,8.132
		c1.791,2.55,3.813,4.889,6.104,7.016c2.279,2.136,4.744,4.013,7.418,5.629c2.656,1.626,5.457,2.974,8.393,4.022
		c2.934,1.039,5.938,1.79,9.025,2.213c3.09,0.424,6.188,0.539,9.305,0.337c9.99,0.174,19.652-1.539,28.986-5.129L2404.379,1914.212z
		"/>
	<path fill="#040404" d="M2470.057,1837.093c0,27.811,11.645,48.712,33.932,48.712c22.277,0,32.141-19.718,32.141-49.107
		c0-23.865-9.469-48.316-32.141-48.316c-22.682,0-32.939,24.653-32.939,48.722h-0.992V1837.093z M2588.393,1835.312
		c0.348,5.352,0.172,10.673-0.529,15.994c-0.703,5.303-1.934,10.499-3.656,15.561c-1.742,5.071-3.955,9.921-6.641,14.56
		c-2.695,4.629-5.813,8.959-9.354,12.973c-3.541,4.003-7.459,7.631-11.73,10.883c-4.254,3.243-8.805,6.034-13.617,8.373
		c-4.811,2.348-9.826,4.205-14.992,5.543c-5.197,1.356-10.451,2.203-15.82,2.511h-8.873c-2.781,0.164-5.58,0.184-8.354,0.038
		c-2.799-0.124-5.57-0.403-8.342-0.817c-2.752-0.423-5.484-0.991-8.189-1.693c-2.705-0.703-5.369-1.55-7.977-2.531
		c-2.609-1.001-5.178-2.116-7.68-3.368c-2.502-1.25-4.928-2.617-7.285-4.128s-4.619-3.137-6.795-4.879
		c-2.193-1.742-4.271-3.59-6.273-5.553c-1.982-1.953-3.877-4.013-5.639-6.168c-1.791-2.156-3.445-4.398-4.984-6.728
		c-1.551-2.318-2.975-4.733-4.254-7.207c-1.301-2.482-2.455-5.015-3.475-7.611c-1.029-2.609-1.924-5.245-2.664-7.939
		c-0.742-2.685-1.357-5.418-1.83-8.171c-0.461-2.751-0.789-5.523-0.973-8.313c-0.172-2.781-0.201-5.572-0.086-8.362
		c-0.336-5.332-0.145-10.624,0.568-15.897c0.713-5.274,1.924-10.441,3.666-15.474c1.723-5.034,3.926-9.854,6.611-14.464
		c2.666-4.609,5.783-8.912,9.305-12.895c3.523-4.004,7.42-7.613,11.654-10.836c4.234-3.234,8.748-6.015,13.529-8.354
		c4.783-2.338,9.76-4.186,14.906-5.543c5.148-1.356,10.395-2.203,15.717-2.53h10.844c5.148-0.24,10.277,0,15.396,0.751
		c5.121,0.76,10.105,2.002,14.965,3.733c4.869,1.741,9.518,3.936,13.943,6.582c4.436,2.646,8.564,5.707,12.395,9.161
		c3.83,3.445,7.305,7.256,10.393,11.403c3.08,4.138,5.736,8.536,7.959,13.193c2.232,4.657,3.984,9.498,5.264,14.492
		c1.27,5.014,2.051,10.085,2.318,15.243C2588.191,1829.645,2588.393,1832.473,2588.393,1835.312L2588.393,1835.312z"/>
	<path fill="#040404" d="M2619.359,1807.905c0-19.727,0-37.482-1.385-51.878h42.6l2.176,21.883h1.184
		c2.627-4.061,5.727-7.736,9.287-10.999c3.57-3.263,7.496-6.024,11.797-8.267c4.283-2.232,8.787-3.896,13.502-4.994
		c4.715-1.078,9.498-1.529,14.328-1.386c4.688-0.231,9.316,0.231,13.857,1.405c4.543,1.184,8.814,3.013,12.789,5.495
		c3.984,2.482,7.506,5.514,10.566,9.074c3.051,3.569,5.514,7.507,7.361,11.826c5.65-8.073,12.674-14.646,21.096-19.727
		c9.467-5.727,19.727-8.411,30.773-8.094c30.957,0,54.428,22.096,54.428,70.413v94.864h-48.914v-87.58
		c0-23.269-7.496-37.077-24.066-37.077c-2.57,0.048-5.043,0.48-7.479,1.309c-2.424,0.827-4.666,1.991-6.736,3.513
		c-2.059,1.511-3.848,3.31-5.369,5.389c-1.512,2.068-2.666,4.32-3.482,6.746c-1.186,4.204-1.781,8.468-1.781,12.827v94.864h-49.115
		v-90.342c0-19.718-7.295-33.72-23.26-33.72c-2.666,0.068-5.264,0.549-7.777,1.416c-2.529,0.885-4.85,2.136-6.957,3.742
		c-2.135,1.607-3.955,3.513-5.475,5.697c-1.531,2.185-2.693,4.552-3.473,7.083c-1.357,4.176-2.012,8.439-1.965,12.817v93.296
		h-49.115L2619.359,1807.905z"/>
</g>
</svg>
